<?xml version="1.0" encoding="UTF-8"?>
<svg width="48px" height="78px" viewBox="0 0 48 78" version="1.1" xmlns="http://www.w3.org/2000/svg" xmlns:xlink="http://www.w3.org/1999/xlink">
    <!-- Generator: Sketch 48.2 (47327) - http://www.bohemiancoding.com/sketch -->
    <title>Fill 23 Copy 2</title>
    <desc>Created with Sketch.</desc>
    <defs></defs>
    <g id="Artboard" stroke="none" stroke-width="1" fill="none" fill-rule="evenodd" transform="translate(-927.000000, -584.000000)">
        <path d="M944.38458,660.531421 C943.336593,661.579493 942.343189,662.066587 941.412554,661.992702 C940.476461,661.91608 939.728679,661.543919 939.169206,660.870745 C938.607005,660.194834 938.233113,659.294532 938.047532,658.169838 C937.859222,657.045145 938.066636,655.920451 938.664317,654.795758 L945.841938,624.546703 C944.570161,623.049848 942.943598,621.399751 940.964976,619.599146 C938.980896,617.798542 937.037753,615.9651 935.130089,614.087875 C933.225154,612.218859 931.486695,610.322478 929.917444,608.409678 C928.348192,606.496878 927.373891,604.682591 927,602.955872 C927,601.010235 928.009779,600.033311 930.029338,600.033311 C931.298385,599.80892 932.327269,599.921115 933.113259,600.369898 C933.899249,600.818681 934.58972,601.478173 935.187401,602.337428 C935.785081,603.202156 936.401865,604.269383 937.037753,605.541846 C937.673641,606.819783 938.459632,608.130557 939.392995,609.479642 C940.326359,610.828727 941.524448,612.196967 942.981806,613.581626 C944.441892,614.974494 946.324994,616.225066 948.647487,617.34976 C949.095065,616.077296 949.504435,614.033145 949.881055,611.220043 C950.252217,608.409678 950.571526,605.413232 950.833523,602.225232 C951.092791,599.039969 951.300205,595.871124 951.450307,592.724172 C951.59768,589.574483 951.674096,586.988509 951.674096,584.963513 C951.897885,584.667973 952.364567,584.42169 953.076871,584.232873 C953.783716,584.049529 954.553332,583.972907 955.374801,584.008482 C956.19627,584.049529 956.946782,584.197299 957.618149,584.457264 C958.292245,584.722703 958.701615,585.116756 958.851717,585.639424 C959.222879,588.862998 959.168297,592.031842 958.682511,595.140484 C958.196725,598.254599 957.596316,601.365977 956.88947,604.474619 C956.177166,607.585997 955.522174,610.680957 954.927223,613.751288 C954.326814,616.829828 954.176711,619.935734 954.476916,623.085423 L974.440528,643.214973 C974.514214,643.291594 974.626109,643.592607 974.776211,644.112538 C974.923584,644.640679 975,645.01284 975,645.239968 C975,645.688751 974.964521,646.137534 974.888106,646.586317 C974.81169,647.037836 974.645213,647.472936 974.385945,647.880672 C974.121219,648.29388 973.785536,648.611312 973.376166,648.83844 C972.961337,649.062831 972.420969,649.136716 971.749602,649.062831 C970.775301,648.014759 969.563566,646.720404 968.10348,645.182502 C966.646122,643.650073 965.055038,642.032813 963.338413,640.347141 C961.616329,638.658733 959.861496,637.030527 958.065727,635.454314 C956.272686,633.880838 954.553332,632.643949 952.907664,631.743647 L952.345463,631.743647 L952.233568,631.631451 C951.859677,631.631451 951.523994,631.84216 951.223789,632.249896 C950.923584,632.663104 950.530589,633.823372 950.047532,635.736172 C949.559018,637.648971 948.887651,640.535958 948.027974,644.394396 C947.168297,648.258306 945.953832,653.632754 944.38458,660.531421" id="Fill-23-Copy-2" fill="#00bfad"></path>
    </g>
</svg>