<?xml version="1.0" encoding="UTF-8"?>
<svg width="65px" height="83px" viewBox="0 0 65 83" version="1.1" xmlns="http://www.w3.org/2000/svg" xmlns:xlink="http://www.w3.org/1999/xlink">
    <!-- Generator: Sketch 48.2 (47327) - http://www.bohemiancoding.com/sketch -->
    <title>Fill 1</title>
    <desc>Created with Sketch.</desc>
    <defs></defs>
    <g id="Artboard" stroke="none" stroke-width="1" fill="none" fill-rule="evenodd" transform="translate(-919.000000, -868.000000)">
        <path d="M919.518409,928.826208 C919.518409,928.794315 919.530949,928.633856 919.514396,928.476886 C919.499848,928.338851 919.452695,928.204305 919.420089,928.068264 C919.351366,928.199322 919.259568,928.323902 919.218936,928.463431 C919.130148,928.767406 919.05992,929.07736 918.999223,929.388312 C918.987685,929.447113 919.037848,929.551262 919.090519,929.583155 C919.246526,929.676839 919.374441,929.613552 919.423099,929.421699 C919.461725,929.268715 919.474265,929.109253 919.518409,928.826208 L919.518409,928.826208 Z M969.449548,912.708069 C969.449548,913.015532 969.442525,913.173001 969.454063,913.329473 C969.457574,913.375817 969.515763,913.457541 969.544858,913.455548 C969.864897,913.436113 969.49018,913.524316 969.637659,913.24426 C969.892486,912.758399 970.166376,912.266558 970.074076,911.682527 C970.06304,911.611766 970.00134,911.54848 969.963216,911.481206 C969.859881,911.553961 969.691333,911.608278 969.665249,911.70246 C969.559906,912.07919 969.498206,912.467879 969.449548,912.708069 L969.449548,912.708069 Z M916.80259,920.553608 C916.865795,920.908412 916.887365,921.192454 916.921476,921.193949 C917.206903,921.206407 917.166271,920.935819 917.227469,920.765892 C917.496343,920.019908 917.742141,919.264954 917.706023,918.45967 C917.700506,918.331104 917.567072,918.208019 917.492831,918.082941 C917.388492,918.194564 917.216935,918.292235 917.190349,918.419805 C917.031333,919.190705 916.905925,919.968581 916.80259,920.553608 L916.80259,920.553608 Z M925.285636,935.839056 C925.285636,935.308844 925.297174,934.992411 925.278614,934.677971 C925.272594,934.573823 925.186816,934.474657 925.137656,934.373498 C925.097024,934.437283 925.035324,934.496085 925.01877,934.565351 C924.855239,935.246554 924.400763,935.872443 924.59088,936.61743 C924.617467,936.723074 924.799558,936.800812 924.924464,936.862603 C924.965096,936.883035 925.101539,936.82224 925.110568,936.780879 C925.191832,936.399166 925.254535,936.013966 925.285636,935.839056 L925.285636,935.839056 Z M912.893897,913.355884 C912.893897,914.209505 912.886874,914.519459 912.898914,914.828417 C912.901923,914.896687 912.97165,914.962465 913.010275,915.02924 C913.117624,914.952499 913.280152,914.898182 913.322288,914.79503 C913.497357,914.366974 913.666907,913.931443 913.773754,913.483453 C913.823416,913.275156 913.733122,913.03098 913.692992,912.805241 C913.65537,912.596943 913.279148,912.322868 913.174809,912.421535 C913.077493,912.513226 912.948073,912.625348 912.934028,912.740459 C912.887376,913.124165 912.886373,913.513353 912.893897,913.355884 L912.893897,913.355884 Z M942.85218,921.589116 C942.85218,921.993751 942.834121,922.152217 942.858199,922.303706 C942.876258,922.415828 942.949496,922.519478 942.998655,922.626617 C943.040792,922.563828 943.106004,922.506023 943.122056,922.436757 C943.364844,921.378825 943.607131,920.320893 943.82534,919.25748 C943.839887,919.18622 943.666825,919.065128 943.563991,918.989882 C943.541919,918.973936 943.400962,919.048186 943.389926,919.097519 C943.187268,920.005457 942.995645,920.915886 942.85218,921.589116 L942.85218,921.589116 Z M989.905975,902.468105 C989.844777,902.797992 989.752979,903.265914 989.672216,903.735829 C989.623558,904.016881 989.816184,904.319361 989.971689,904.225677 C990.097598,904.149932 990.271663,904.033824 990.287213,903.917217 C990.360451,903.368568 990.419142,902.81344 990.420647,902.260804 C990.422653,901.63342 990.557591,900.992083 990.300256,900.379648 C989.875878,900.887436 990.08907,901.524786 989.949617,902.090877 C989.931057,902.16712 989.930555,902.248346 989.905975,902.468105 L989.905975,902.468105 Z M926.685181,930.902704 C926.698725,930.903701 926.712269,930.905196 926.726315,930.906192 C926.691201,931.372121 926.646054,931.837551 926.630504,932.304476 C926.627494,932.402645 926.733337,932.504801 926.789018,932.604963 C926.842693,932.54965 926.920947,932.503804 926.947031,932.438026 C927.347833,931.422451 927.638276,930.378472 927.711012,929.285658 C927.728068,929.031017 927.562028,928.87305 927.302185,928.838665 C926.967097,928.794315 926.906399,929.076862 926.871787,929.278681 C926.780491,929.815371 926.74337,930.360533 926.685181,930.902704 L926.685181,930.902704 Z M935.374899,930.872805 C935.374397,930.882273 935.395967,930.647066 935.392958,930.412358 C935.390951,930.257879 935.35383,930.103898 935.332762,929.949918 C935.265544,930.05307 935.162208,930.14775 935.135622,930.260371 C934.813075,931.63324 934.497048,933.008103 934.194064,934.38496 C934.163465,934.525486 934.218143,934.689433 934.253758,934.837434 C934.271315,934.908693 934.363113,935.030283 934.376657,935.024802 C934.515107,934.966498 934.674123,934.91268 934.767426,934.80604 C934.863739,934.696409 934.926443,934.533459 934.946006,934.385956 C935.087466,933.297129 935.214378,932.205809 935.374899,930.872805 L935.374899,930.872805 Z M988.113655,899.285339 C988.113655,899.497125 988.092587,899.659577 988.120177,899.813059 C988.141245,899.930164 988.223512,900.036306 988.278691,900.147431 C988.332366,900.09162 988.406105,900.044778 988.437708,899.978003 C989.033141,898.734198 989.206203,897.400695 989.269408,896.045267 C989.27292,895.976 989.227773,895.892781 989.180118,895.836969 C989.141995,895.792619 989.062737,895.755245 989.007056,895.761225 C988.935324,895.769198 988.828978,895.806572 988.805903,895.86039 C988.325343,896.969649 988.338385,898.175582 988.113655,899.285339 L988.113655,899.285339 Z M953.853905,915.577391 C953.864439,915.57789 953.874973,915.57789 953.885508,915.578388 C953.885508,916.127038 953.881996,916.675687 953.890524,917.224835 C953.891527,917.28563 953.961254,917.345428 953.998876,917.406223 C954.064589,917.361375 954.169931,917.32998 954.188993,917.27068 C954.336472,916.821695 954.49298,916.373207 954.596817,915.913259 C954.787436,915.072594 954.946954,914.224953 955.110485,913.378308 C955.141085,913.220341 954.748811,912.993606 954.578257,913.057889 C954.27126,913.174496 953.992355,913.348907 953.958745,913.693246 C953.899052,914.319135 953.886009,914.949011 953.853905,915.577391 L953.853905,915.577391 Z M955.271007,922.403868 C955.271007,921.395768 955.27502,920.759414 955.266492,920.12306 C955.265489,920.052797 955.21031,919.964595 955.152622,919.920743 C955.125033,919.899813 954.986081,919.952137 954.976049,919.991006 C954.624909,921.371849 954.281293,922.754685 953.942693,924.139016 C953.924635,924.21177 953.957742,924.295488 953.962257,924.374223 C953.971788,924.533685 954.392153,924.712083 954.561703,924.611423 C954.833586,924.450964 955.148108,924.301966 955.178707,923.938193 C955.231378,923.304829 955.255958,922.668475 955.271007,922.403868 L955.271007,922.403868 Z M964.477904,911.750797 L964.511513,911.750797 C964.511513,912.455421 964.509005,913.160543 964.516028,913.865166 C964.516529,913.928453 964.575722,913.990743 964.607826,914.053531 C964.674041,914.010675 964.785402,913.979281 964.79995,913.923469 C965.190719,912.406087 965.572458,910.886711 965.950686,909.366339 C965.968243,909.294581 965.968745,909.179469 965.925605,909.139106 C965.821768,909.040937 965.683318,908.902902 965.565435,908.908882 C964.860145,908.943764 964.492953,909.274648 964.480914,909.867648 C964.468373,910.495032 964.477904,911.123413 964.477904,911.750797 L964.477904,911.750797 Z M968.133775,916.733991 C968.133775,916.26258 968.13829,915.710443 968.130264,915.158803 C968.128258,915.010802 968.089131,914.862801 968.067059,914.715299 C967.979775,914.836889 967.84885,914.947017 967.812733,915.082062 C967.38986,916.678677 966.975013,918.277285 966.580732,919.880877 C966.555149,919.985524 966.693599,920.223721 966.790413,920.24465 C967.002602,920.290994 967.281006,920.308933 967.450055,920.205781 C967.626629,920.097646 967.786147,919.844998 967.814739,919.636701 C967.945163,918.700857 968.025925,917.758535 968.133775,916.733991 L968.133775,916.733991 Z M936.553727,932.87555 C936.58232,933.119727 936.581316,933.200455 936.603388,933.274704 C936.62546,933.34995 936.670105,933.418719 936.705219,933.489978 C936.832633,933.428685 937.053851,933.387823 937.072913,933.302112 C937.26303,932.456962 937.456157,931.608823 937.577551,930.751713 C937.855956,928.787339 938.364106,926.85386 938.394705,924.856596 C938.395708,924.785336 938.338523,924.71308 938.308425,924.641322 C938.21161,924.706103 938.046073,924.756433 938.028516,924.838158 C937.698444,926.391918 937.364359,927.944681 937.076424,929.506413 C936.860724,930.676467 936.709232,931.858481 936.553727,932.87555 L936.553727,932.87555 Z M973.506221,924.736501 C973.506221,925.191466 973.50271,925.822837 973.511739,926.454207 C973.512241,926.522976 973.572938,926.628121 973.630124,926.648054 C973.680286,926.665495 973.815726,926.597723 973.82626,926.549386 C974.49142,923.460305 975.150059,920.369728 975.800672,917.278155 C975.831271,917.132148 975.802678,916.968201 975.776092,916.81721 C975.739975,916.605922 975.619082,916.582003 975.419936,916.634327 C974.609805,916.846611 974.269199,917.411206 974.188437,918.186591 C973.96772,920.308933 973.746501,922.431275 973.506221,924.736501 L973.506221,924.736501 Z M963.003115,917.010059 C963.060301,915.713931 963.107955,914.60816 963.159623,913.50239 C963.166646,913.344921 963.194236,913.18795 963.205773,913.030481 C963.220822,912.821187 963.146079,912.718035 963.006626,912.765874 C962.940411,912.788298 962.859147,912.861551 962.844099,912.925834 C962.145329,915.840504 961.452078,918.75617 960.763843,921.673332 C960.721205,921.854222 961.04626,922.068997 961.270489,922.025145 C962.534092,921.778975 962.817512,921.504402 962.876203,920.375708 C962.937402,919.191203 962.966496,918.005203 963.003115,917.010059 L963.003115,917.010059 Z M951.967279,921.726652 C952.002894,921.729144 952.03851,921.731635 952.074627,921.734127 C952.168933,920.397634 952.268758,919.061142 952.351025,917.723653 C952.359552,917.58512 952.279793,917.325994 952.216588,917.318021 C951.935174,917.283138 951.794718,917.525322 951.726497,917.739101 C950.83761,920.523709 950.38163,923.409975 949.724496,926.2489 C949.687877,926.407365 950.073128,926.664997 950.246691,926.611676 C951.35479,926.273318 951.67834,925.89609 951.762112,924.797794 C951.839865,923.774744 951.899559,922.750698 951.967279,921.726652 L951.967279,921.726652 Z M956.708675,919.052172 C956.708675,920.472382 956.706669,921.737117 956.714193,923.002349 C956.714695,923.060653 956.787431,923.154337 956.84261,923.167791 C956.909828,923.183738 957.042258,923.15334 957.062825,923.106996 C957.252441,922.67595 957.473158,922.250386 957.592545,921.798908 C958.325927,919.031741 958.787927,916.214742 959.089406,913.371332 C959.156123,912.743449 959.195751,912.11158 959.209797,911.480708 C959.211302,911.387522 958.997608,911.201649 958.892266,911.208127 C957.913086,911.266431 957.309627,911.757774 957.240402,912.559569 C957.050285,914.773104 956.876721,916.988133 956.708675,919.052172 L956.708675,919.052172 Z M928.429847,936.428567 C928.461951,936.929877 928.453423,937.411751 928.541208,937.875188 C928.578329,938.069533 928.818609,938.226005 928.966088,938.399919 C929.13012,938.235473 929.331274,938.093951 929.446648,937.901599 C929.565033,937.70277 929.611183,937.457098 929.670876,937.227373 C930.575313,933.765549 931.073431,930.228976 931.601646,926.698384 C931.635255,926.473642 931.586597,926.231957 931.548975,926.00273 C931.518376,925.817854 931.372903,925.749584 931.181281,925.817355 C930.46947,926.069505 929.948277,926.476134 929.767691,927.272448 C929.082466,930.299239 928.71728,933.369385 928.429847,936.428567 L928.429847,936.428567 Z M985.495152,902.993831 C985.495152,902.598664 985.513713,902.201504 985.484117,901.80833 C985.475589,901.687238 985.356201,901.503857 985.253367,901.477446 C985.129465,901.445055 984.928312,901.506847 984.831999,901.600531 C984.485373,901.938391 984.275191,902.347511 984.195432,902.840847 C983.968194,904.246606 983.755002,905.656352 983.453523,907.047161 C982.817457,909.985252 982.126213,912.911881 981.471085,915.845985 C981.45102,915.93668 981.572916,916.063751 981.645652,916.160923 C981.653678,916.171388 981.800154,916.114081 981.844297,916.058269 C982.682017,914.996351 983.459542,913.915496 983.6928,912.524687 C983.822722,911.748306 984.135738,911.004813 984.325354,910.236903 C984.913263,907.85394 985.489133,905.467489 985.495152,902.993831 L985.495152,902.993831 Z M957.362298,880.115991 C957.215822,880.242564 957.133555,880.281433 957.107972,880.344221 C957.079379,880.411494 957.073359,880.518633 957.108975,880.577435 C957.566461,881.325412 958.047021,882.060433 958.493973,882.814888 C958.981556,883.637614 959.480677,884.458345 959.90355,885.314956 C960.515537,886.554277 960.203022,887.285809 958.948448,887.735792 C958.722214,887.816519 958.496481,887.901234 958.265731,887.96751 C954.648485,889.013483 951.062842,890.152142 947.489237,891.342129 C943.683379,892.608857 939.973331,894.108299 936.235192,895.537978 C934.292384,896.280972 932.444884,897.265651 930.518128,898.053494 C927.095012,899.454269 923.871043,901.229283 920.69523,903.094492 C918.410812,904.436964 916.299958,906.026105 914.392764,907.867893 C913.850002,908.392125 913.786797,908.720019 914.190106,909.340925 C914.710296,910.141226 915.26911,910.920597 915.857521,911.673059 C918.120369,914.568295 920.400774,917.449577 922.675661,920.335344 C923.911675,921.903057 925.148692,923.469773 926.387715,925.034994 C926.763937,925.510391 927.109559,925.587132 927.622224,925.260733 C928.567293,924.659261 929.479254,924.006463 930.433352,923.419443 C937.050841,919.348174 943.791229,915.489189 950.812027,912.145466 C955.584525,909.872632 960.424742,907.733845 965.59754,906.477084 C966.608322,906.231412 967.631645,906.036071 968.653965,905.841228 C969.454564,905.688244 970.083105,906.027101 970.511497,906.667442 C970.817992,907.125895 971.035197,907.646141 971.264943,908.15044 C971.760553,909.238769 972.209009,910.349025 972.736221,911.421408 C973.012618,911.983512 973.15157,912.640795 973.701856,913.046926 C974.437746,912.893443 974.509479,912.155432 974.864632,911.686514 C976.07105,910.096875 977.218777,908.462388 978.361989,906.826904 C980.100635,904.340789 981.819717,901.841717 983.540806,899.343642 C985.353191,896.713513 987.16056,894.079397 988.96191,891.441793 C989.184633,891.114895 989.359702,890.756105 989.548816,890.40778 C989.641617,890.237853 989.588946,890.090849 989.401337,890.014606 C988.959402,889.833716 988.522483,889.63389 988.066502,889.494361 C982.244095,887.713866 976.417675,885.948819 970.59577,884.16633 C966.996081,883.064546 963.404418,881.938843 959.807237,880.829584 C958.976038,880.57295 958.136311,880.341231 957.362298,880.115991 L957.362298,880.115991 Z M955.748557,877 C956.040505,877.447491 956.55016,877.509781 956.994102,877.647317 C961.430007,879.020685 965.871429,880.376612 970.31235,881.733535 C976.362496,883.581802 982.413144,885.429072 988.465297,887.27086 C989.461031,887.573838 990.471813,887.828977 991.464537,888.140427 C992.127188,888.348725 992.561097,888.831098 992.671957,889.508314 C992.773788,890.133206 992.807397,890.774045 992.811912,891.408405 C992.828466,893.718614 992.803384,896.029819 992.827964,898.340526 C992.840505,899.534499 992.896185,900.729468 992.982466,901.92095 C993.097339,903.512084 992.648381,904.883458 991.618035,906.119789 C990.699552,907.222071 989.850796,908.386145 989.02963,909.563175 C988.57716,910.211987 988.202945,910.924085 987.866854,911.641665 C987.390306,912.657738 986.862091,913.601057 986.043433,914.417802 C985.259387,915.200164 984.628338,916.141987 983.980735,917.048928 C982.95992,918.478108 981.983248,919.938682 980.983502,921.382812 C979.256895,923.876402 977.531793,926.371486 975.794652,928.857602 C975.476118,929.313065 975.139525,929.768529 974.74374,930.155723 C974.021896,930.861842 972.786384,930.714838 972.225061,929.858227 C971.921575,929.39479 971.691829,928.878531 971.465595,928.370245 C970.751275,926.769145 970.062539,925.156584 969.347717,923.555484 C968.902271,922.557849 968.581228,922.375464 967.45758,922.586253 C966.593775,922.748705 965.72997,922.952019 964.897266,923.230081 C959.34323,925.082334 953.952224,927.299357 948.719733,929.946429 C942.349547,933.168562 936.217134,936.776394 930.185046,940.568106 C929.575567,940.951314 928.96358,941.334521 928.327013,941.667897 C927.19283,942.262392 926.134393,942.027683 925.220926,941.211436 C924.748392,940.788861 924.363141,940.266623 923.963343,939.7693 C920.809602,935.847527 917.666896,931.917781 914.510146,927.999496 C913.708543,927.004352 912.869317,926.039606 912.044639,925.0629 C911.303734,924.185858 910.813642,923.23058 910.824176,922.034115 C910.833206,920.993624 910.693251,919.96011 910,919.098017 L910,910.965446 C910.574365,910.679411 910.765486,910.142222 910.787056,909.580118 C910.829694,908.450428 911.422118,907.620228 912.190112,906.897167 C913.23651,905.912488 914.286419,904.925317 915.406556,904.026349 C919.303712,900.899395 923.779746,898.740178 928.244244,896.572489 C929.538446,895.944108 930.893346,895.439809 932.198585,894.832357 C935.829876,893.14156 939.585572,891.751747 943.349795,890.403793 C947.415999,888.947704 951.493741,887.504073 955.674818,886.385346 C956.061072,886.282194 956.436792,886.13818 956.814519,886.005129 C957.277021,885.842178 957.44607,885.486877 957.201275,885.087224 C956.53461,884.00039 955.843365,882.929003 955.159645,881.852135 C954.60384,880.977087 954.033488,880.111008 953.492231,879.227487 C953.174198,878.709235 953.219344,878.162579 953.484205,877.629876 C953.59055,877.416595 953.709436,877.209294 953.822302,877 L955.748557,877 Z" id="Fill-1" fill="#000000" transform="translate(951.500000, 909.500000) rotate(-270.000000) translate(-951.500000, -909.500000) "></path>
    </g>
</svg>