<?xml version="1.0" encoding="UTF-8"?>
<svg width="548px" height="110px" viewBox="0 0 548 110" version="1.1" xmlns="http://www.w3.org/2000/svg" xmlns:xlink="http://www.w3.org/1999/xlink">
    <!-- Generator: Sketch 48.2 (47327) - http://www.bohemiancoding.com/sketch -->
    <title>Page 1 Copy</title>
    <desc>Created with Sketch.</desc>
    <defs>
        <polygon id="path-1" points="0 110 548 110 548 0 0 0"></polygon>
    </defs>
    <g id="Artboard" stroke="none" stroke-width="1" fill="none" fill-rule="evenodd" transform="translate(-677.000000, -319.000000)">
        <g id="Page-1-Copy" transform="translate(677.000000, 319.000000)">
            <path d="M0,44 L37.2830189,44 L38,59.1542857 L36.709434,59.1542857 C34.9397942,53.9085714 32.8963979,50.3385714 30.5792453,48.4442857 C28.2588336,46.55 24.8075472,45.6028571 20.2188679,45.6028571 L18.2113208,45.6028571 L18.2113208,69.2814286 L21.4377358,69.2814286 C23.7320755,69.2814286 25.6451115,68.4303247 27.1735849,66.7314286 C28.7020583,65.0325325 29.754717,62.6977922 30.3283019,59.7371429 L31.4037736,59.7371429 L31.4037736,81.3028571 L30.1849057,81.3028571 C29.4190395,77.66 28.3566038,75.0603247 26.9943396,73.5071429 C25.6320755,71.953961 23.7777015,71.1757143 21.4377358,71.1757143 L18.2113208,71.1757143 L18.2113208,93.3971429 L27.1018868,93.3971429 L27.1018868,95 L0,95 L0,93.3971429 L4.23018868,93.3971429 L4.23018868,45.6028571 L0,45.6028571 L0,44 Z" id="Fill-1" fill="#000000"></path>
            <path d="M65.3035343,61.8148148 C63.5108675,61.8148148 61.9298809,63 60.5738046,65.3703704 C59.2144207,67.7407407 58.5363825,70.5555556 58.5363825,73.8148148 L58.5363825,93.6666667 L63.7027027,93.6666667 L63.7027027,95 L41,95 L41,93.6666667 L45.002079,93.6666667 L45.002079,61.0740741 L41,61.0740741 L41,59.7407407 L58.5363825,59.7407407 L58.5363825,66.8518519 C59.1681157,64.3333333 60.3786619,62.3939394 62.1746362,61.037037 C63.9706105,59.6801347 66.004725,59 68.2869023,59 C70.5657721,59 72.4212814,59.6531987 73.8534304,60.962963 C75.2855793,62.2727273 76,64.1245791 76,66.5185185 C76,68.9124579 75.467492,70.7542088 74.3991684,72.037037 C73.3308448,73.3198653 71.6936307,73.962963 69.487526,73.962963 C67.2814213,73.962963 65.6541297,73.2222222 64.6122661,71.7407407 C63.5704026,70.2592593 63.4381024,68.2087542 64.2120582,65.5925926 L66.8316008,65.5925926 C68.0454545,63.0740741 67.536099,61.8148148 65.3035343,61.8148148" id="Fill-3" fill="#000000"></path>
            <path d="M90.0434783,91.0080645 C90.3046915,91.733871 90.8075271,92.0967742 91.5519849,92.0967742 C92.2931775,92.0967742 92.9886578,91.4798387 93.6351607,90.2459677 C94.2816635,89.0120968 94.6049149,87.3064516 94.6049149,85.1290323 L94.6049149,78.3790323 L94.1020794,78.3790323 C91.1307785,78.3790323 89.6483932,80.5828446 89.6483932,84.983871 L89.6483932,86.1451613 C89.6483932,88.66239 89.7789998,90.2822581 90.0434783,91.0080645 M92.5217391,77.2177419 L94.6049149,77.2177419 L94.6049149,71.6290323 C94.6049149,67.0333578 94.3534972,63.9486804 93.8506616,62.375 C93.3478261,60.8046188 92.3780718,60.016129 90.9413989,60.016129 C90.0793951,60.016129 89.2990205,60.2470674 88.6068053,60.7056452 C87.911325,61.167522 87.5652174,61.7943548 87.5652174,62.5927419 C87.5652174,63.391129 87.7088847,64.2027126 87.9962193,65.0241935 L89.7920605,65.0241935 C90.1740849,66.0403226 90.3667297,67.2642962 90.3667297,68.6895161 C90.3667297,70.1180352 89.7659392,71.3519062 88.5708885,72.391129 C87.3725726,73.433651 85.864066,73.9516129 84.0453686,73.9516129 C79.9247293,73.9516129 77.8676749,71.9457478 77.8676749,67.9274194 C77.8676749,61.9758065 82.8699089,59 92.8809074,59 C98.5786218,59 102.516412,59.9798387 104.697543,61.9395161 C106.875408,63.8991935 107.965974,67.4919355 107.965974,72.7177419 L107.965974,87.4516129 C107.965974,89.9688416 108.658189,91.2258065 110.049149,91.2258065 C111.675202,91.2258065 112.635161,88.7349707 112.922495,83.75 L114,83.8225806 C113.807355,88.0817449 113.017185,91.0080645 111.62949,92.6048387 C110.238529,94.2016129 107.965974,95 104.805293,95 C99.0586011,95 95.7542533,93.2118768 94.8922495,89.6290323 C94.2686029,91.4699413 93.3347654,92.8225806 92.0907372,93.6935484 C90.8434439,94.5645161 89.0247465,95 86.63138,95 C79.5427049,95 76,92.0736804 76,86.2177419 C76,82.7833578 77.3517787,80.4244868 80.0586011,79.141129 C82.7621584,77.8610704 86.9187146,77.2177419 92.5217391,77.2177419" id="Fill-5" fill="#000000"></path>
            <path d="M115,59.7407407 L132.391753,59.7407407 L132.391753,66.5555556 C133.979381,61.5185185 137.479381,59 142.891753,59 C148.304124,59 151.587629,61.6666667 152.742268,67 C154.425023,61.6666667 157.961106,59 163.350515,59 C170.42268,59 173.958763,63.1245791 173.958763,71.3703704 L173.958763,93.6666667 L178,93.6666667 L178,95 L158.010309,95 L158.010309,93.6666667 L160.536082,93.6666667 L160.536082,69.5925926 C160.536082,65.8417508 160.221181,63.6430976 159.597938,63 C159.309278,62.7037037 158.922212,62.5555556 158.443299,62.5555556 C157.045923,62.5555556 155.819119,63.5185185 154.762887,65.4444444 C153.703374,67.3703704 153.175258,69.8148148 153.175258,72.7777778 L153.175258,93.6666667 L155.773196,93.6666667 L155.773196,95 L137.226804,95 L137.226804,93.6666667 L139.752577,93.6666667 L139.752577,69.5925926 C139.752577,65.8417508 139.437676,63.6430976 138.814433,63 C138.525773,62.7037037 138.138707,62.5555556 137.659794,62.5555556 C136.311621,62.5555556 135.097938,63.6060606 134.015464,65.7037037 C132.93299,67.8047138 132.391753,70.3097643 132.391753,73.2222222 L132.391753,93.6666667 L134.989691,93.6666667 L134.989691,95 L115,95 L115,93.6666667 L118.969072,93.6666667 L118.969072,61.0740741 L115,61.0740741 L115,59.7407407 Z" id="Fill-7" fill="#000000"></path>
            <path d="M194.043478,91.0080645 C194.304692,91.733871 194.807527,92.0967742 195.551985,92.0967742 C196.293178,92.0967742 196.988658,91.4798387 197.635161,90.2459677 C198.281664,89.0120968 198.604915,87.3064516 198.604915,85.1290323 L198.604915,78.3790323 L198.102079,78.3790323 C195.130778,78.3790323 193.648393,80.5828446 193.648393,84.983871 L193.648393,86.1451613 C193.648393,88.66239 193.779,90.2822581 194.043478,91.0080645 M196.521739,77.2177419 L198.604915,77.2177419 L198.604915,71.6290323 C198.604915,67.0333578 198.353497,63.9486804 197.850662,62.375 C197.347826,60.8046188 196.378072,60.016129 194.941399,60.016129 C194.079395,60.016129 193.29902,60.2470674 192.606805,60.7056452 C191.911325,61.167522 191.565217,61.7943548 191.565217,62.5927419 C191.565217,63.391129 191.708885,64.2027126 191.996219,65.0241935 L193.79206,65.0241935 C194.174085,66.0403226 194.36673,67.2642962 194.36673,68.6895161 C194.36673,70.1180352 193.765939,71.3519062 192.570888,72.391129 C191.372573,73.433651 189.864066,73.9516129 188.045369,73.9516129 C183.924729,73.9516129 181.867675,71.9457478 181.867675,67.9274194 C181.867675,61.9758065 186.869909,59 196.880907,59 C202.578622,59 206.516412,59.9798387 208.697543,61.9395161 C210.875408,63.8991935 211.965974,67.4919355 211.965974,72.7177419 L211.965974,87.4516129 C211.965974,89.9688416 212.658189,91.2258065 214.049149,91.2258065 C215.675202,91.2258065 216.635161,88.7349707 216.922495,83.75 L218,83.8225806 C217.807355,88.0817449 217.017185,91.0080645 215.62949,92.6048387 C214.238529,94.2016129 211.965974,95 208.805293,95 C203.058601,95 199.754253,93.2118768 198.89225,89.6290323 C198.268603,91.4699413 197.334765,92.8225806 196.090737,93.6935484 C194.843444,94.5645161 193.024747,95 190.63138,95 C183.542705,95 180,92.0736804 180,86.2177419 C180,82.7833578 181.351779,80.4244868 184.058601,79.141129 C186.762158,77.8610704 190.918715,77.2177419 196.521739,77.2177419" id="Fill-9" fill="#000000"></path>
            <path d="M360.853288,45.3842857 L360.853288,72.7057143 L362.376054,72.7057143 C365.27656,72.7057143 367.280546,71.7122078 368.394604,69.7185714 C369.505366,67.7282468 370.062395,64.496039 370.062395,60.0285714 L370.062395,56.5314286 C370.062395,52.4050649 369.541622,49.513961 368.503373,47.8614286 C367.465123,46.2122078 365.56661,45.3842857 362.81113,45.3842857 L360.853288,45.3842857 Z M342,44 L363.318718,44 C370.616128,44 376.054576,45.0564286 379.634064,47.1692857 C383.210256,49.2821429 385,53.0574675 385,58.4985714 C385,64.5225325 382.824621,68.6753896 378.473862,70.9571429 C374.413153,73.0468182 368.734095,74.09 361.43339,74.09 L360.853288,74.09 L360.853288,93.6157143 L369.917369,93.6157143 L369.917369,95 L342,95 L342,93.6157143 L346.713322,93.6157143 L346.713322,45.3842857 L342,45.3842857 L342,44 Z" id="Fill-11" fill="#000000"></path>
            <path d="M412.305831,61.8148148 C410.509687,61.8148148 408.931859,63 407.575654,65.3703704 C406.216142,67.7407407 405.53804,70.5555556 405.53804,73.8148148 L405.53804,93.6666667 L410.704848,93.6666667 L410.704848,95 L388,95 L388,93.6666667 L392.002457,93.6666667 L392.002457,61.0740741 L388,61.0740741 L388,59.7407407 L405.53804,59.7407407 L405.53804,66.8518519 C406.169833,64.3333333 407.380493,62.3939394 409.176637,61.037037 C410.972781,59.6801347 413.007088,59 415.289481,59 C417.568566,59 419.424251,59.6531987 420.856535,60.962963 C422.28882,62.2727273 423,64.1245791 423,66.5185185 C423,68.9124579 422.467442,70.7542088 421.402325,72.037037 C420.3339,73.3198653 418.696532,73.962963 416.490218,73.962963 C414.283905,73.962963 412.65646,73.2222222 411.614498,71.7407407 C410.572536,70.2592593 410.440223,68.2087542 411.214252,65.5925926 L413.834042,65.5925926 C415.044703,63.0740741 414.538607,61.8148148 412.305831,61.8148148" id="Fill-13" fill="#000000"></path>
            <path d="M446.991483,80.7529719 L446.991483,74.492115 C446.991483,69.7311853 446.736059,66.2559075 446.225211,64.0696297 C445.711045,61.8866999 444.533441,60.7918869 442.682446,60.7918869 C441.614309,60.7918869 440.748521,61.0999077 440.095033,61.7126012 C439.438228,62.3286427 438.960552,63.3464505 438.668639,64.7693725 C438.230769,66.9790867 438.015152,70.3438788 438.015152,74.8604007 L438.015152,80.6056577 C438.015152,85.9591925 438.17106,89.1766704 438.48951,90.2547431 C438.804644,91.3361638 439.133046,92.2200495 439.4714,92.9064001 C440.008786,94.0849144 441.053703,94.6741715 442.612785,94.6741715 C444.510221,94.6741715 445.750852,93.5693144 446.334678,91.3596002 C446.772548,89.7893638 446.991483,86.2538211 446.991483,80.7529719 Z M437.65026,54.9729728 L442.244576,40.904459 L445.677873,40.1678876 C447.18388,39.8230383 448.338264,40.0105292 449.141026,40.7203162 C449.947104,41.4334512 450.348485,42.390994 450.348485,43.5929446 C450.348485,44.7982433 449.641922,46.0370225 448.232114,47.3126302 L438.453021,55.4885728 L437.65026,54.9729728 Z M428.673929,91.285943 C425.559082,88.1454704 424,83.6389926 424,77.7698578 C424,71.9007229 425.668549,67.384201 428.999014,64.2169439 C432.332795,61.0496869 437.016676,59.4660584 443.050654,59.4660584 C449.081316,59.4660584 453.579433,60.929157 456.548323,63.8486582 C459.513896,66.7715075 461,71.2277645 461,77.2174292 C461,89.7391431 454.820065,96 442.466828,96 C436.383091,96 431.785458,94.4297637 428.673929,91.285943 Z" id="Fill-15" fill="#000000"></path>
            <path d="M489.108108,39.2535576 C483.599942,39.2535576 480.844197,42.2031048 480.844197,48.1021992 L480.844197,59.9003881 L504.90461,59.9003881 L504.90461,93.6727038 L509,93.6727038 L509,95 L488.011129,95 L488.011129,93.6727038 L491.302067,93.6727038 L491.302067,61.2276843 L480.844197,61.2276843 L480.844197,93.6727038 L485.524642,93.6727038 L485.524642,95 L463.219396,95 L463.219396,93.6727038 L467.241653,93.6727038 L467.241653,61.2276843 L463,61.2276843 L463,59.9003881 L467.241653,59.9003881 L467.241653,59.7529107 C467.241653,52.8683994 469.143084,47.5256968 472.945946,43.7147477 C476.748808,39.9037987 482.379968,38 489.839428,38 C493.934817,38 497.16592,38.8714571 499.529412,40.6177232 C501.892904,42.3639892 503.076312,44.3918029 503.076312,46.7011643 C503.076312,49.0138775 502.491256,50.7065153 501.321145,51.7891332 C500.151033,52.8683994 498.638532,53.4113842 496.786963,53.4113842 C494.932071,53.4113842 493.469432,52.9320828 492.399046,51.9734799 C491.325336,51.0148771 490.790143,49.9087969 490.790143,48.6552393 C490.790143,47.4016818 490.936407,46.1849935 491.228935,45.0051746 L494.227345,44.1940492 C494.858939,42.5248736 494.639543,41.2813713 493.569157,40.4702458 C492.498771,39.6591203 491.009539,39.2535576 489.108108,39.2535576" id="Fill-17" fill="#000000"></path>
            <path d="M533.676923,79.9548872 L533.676923,73.7769424 C533.676923,69.221121 533.384615,65.8315106 532.8,63.6015038 C532.218706,61.3714969 530.93986,60.2581454 528.963462,60.2581454 C526.990385,60.2581454 525.688287,61.3847118 525.053846,63.6378446 C524.422727,65.8909774 524.103846,69.3929141 524.103846,74.1403509 L524.103846,79.8095238 C524.103846,84.656072 524.409441,88.1811347 525.020629,90.3847118 C525.625175,92.5915926 526.930594,93.6917293 528.926923,93.6917293 C530.926573,93.6917293 532.218706,92.6874003 532.8,90.6754386 C533.384615,88.6667806 533.676923,85.0921622 533.676923,79.9548872 Z M522.791783,52.481203 L522.203846,50.6641604 L529.95,45.6491228 C526.734615,41.7243108 521.765385,39.7850308 515.045629,39.8345865 L515.191783,38.6716792 C523.472727,38.0406699 530.192483,39.1804511 535.361014,42.0877193 L543.103846,37 L543.691783,38.8170426 L537.041783,43.1779449 C544.346154,48.2656642 548,57.2550695 548,70.1428571 C548,79.3503076 546.19965,85.9412167 542.595629,89.9122807 C541.227098,91.4154705 539.380245,92.6378446 537.041783,93.5827068 C534.703322,94.5275689 531.96958,95 528.857168,95 C522.619056,95 517.918881,93.4604694 514.753322,90.3847118 C511.584441,87.3089542 510,82.8489405 510,77.0112782 C510,71.1736159 511.48479,66.6045796 514.461014,63.3107769 C517.427273,60.0169743 521.522902,58.3684211 526.734615,58.3684211 C530.78042,58.3684211 533.480944,59.8947368 534.849476,62.9473684 C534.454196,55.7783094 533.168706,50.495671 530.976399,47.1027569 L522.791783,52.481203 Z" id="Fill-19" fill="#000000"></path>
            <mask id="mask-2" fill="white">
                <use xlink:href="#path-1"></use>
            </mask>
            <g id="Clip-22"></g>
            <polygon id="Fill-21" fill="#00bfad" mask="url(#mask-2)" points="232 111 329 111 329 104 232 104"></polygon>
            <path d="M269.006368,93.2113461 C267.74005,94.4878441 266.539686,95.081099 265.415169,94.9911109 C264.284057,94.8977899 263.380487,94.4445165 262.704458,93.6246249 C262.025131,92.8014003 261.573345,91.7048786 261.349102,90.3350596 C261.12156,88.9652406 261.372186,87.5954217 262.094383,86.2256027 L270.767341,49.383805 C269.230612,47.5607127 267.265181,45.5509783 264.874346,43.3579348 C262.476916,41.1648913 260.128952,38.931853 257.823857,36.6454885 C255.52206,34.3691227 253.421424,32.059428 251.525244,29.7297359 C249.629065,27.4000437 248.451785,25.1903358 248,23.0872804 C248,20.7175936 249.22015,19.5277508 251.66045,19.5277508 C253.193882,19.2544536 254.437116,19.3911022 255.386855,19.9376966 C256.336593,20.4842911 257.170912,21.2875182 257.893109,22.3340466 C258.615306,23.3872407 259.360587,24.687069 260.128952,26.2368641 C260.897316,27.7933251 261.847055,29.3897808 262.974869,31.032897 C264.102684,32.6760131 265.550375,34.3424596 267.311349,36.0289034 C269.07562,37.7253458 271.351035,39.2484779 274.15738,40.6182968 C274.698203,39.0685016 275.192859,36.5788307 275.647942,33.1526168 C276.096429,29.7297359 276.482261,26.0802182 276.79884,22.197398 C277.112122,18.3179107 277.362747,14.4584208 277.544121,10.625594 C277.722197,6.78943431 277.814533,3.63985056 277.814533,1.17350984 C278.084944,0.813557411 278.648851,0.513597054 279.509552,0.283627447 C280.363657,0.0603236252 281.293609,-0.0329973749 282.286218,0.0103302323 C283.278826,0.0603236252 284.185695,0.24029984 284.99693,0.556924661 C285.811462,0.880215269 286.306118,1.36015184 286.487491,1.99673438 C286.935979,5.92288216 286.870025,9.7823721 286.283034,13.5685384 C285.696043,17.3613705 284.970548,21.1508696 284.116443,24.9370359 C283.255743,28.7265351 282.464294,32.4960369 281.745395,36.2355427 C281.0199,39.9850472 280.838526,43.7678806 281.201274,47.6040403 L305.323971,72.1208001 C305.413009,72.2141211 305.548215,72.5807393 305.729588,73.213989 C305.907664,73.8572373 306,74.3105107 306,74.5871408 C306,75.1337353 305.95713,75.6803297 305.864794,76.2269241 C305.772458,76.7768515 305.571299,77.3067814 305.258017,77.8033825 C304.93814,78.3066493 304.532522,78.6932648 304.037867,78.969895 C303.536616,79.2431922 302.883671,79.3331803 302.072436,79.2431922 C300.895156,77.9666942 299.430976,76.3902359 297.666705,74.5171501 C295.905731,72.6507301 293.98317,70.6809904 291.908915,68.6279284 C289.828065,66.5715335 287.707642,64.5884623 285.537753,62.668716 C283.371162,60.7523026 281.293609,59.245835 279.305094,58.1493133 L278.625768,58.1493133 L278.490562,58.0126647 C278.038776,58.0126647 277.633159,58.2692974 277.270412,58.7658984 C276.907664,59.2691653 276.432795,60.6823118 275.849102,63.0120039 C275.258813,65.3416961 274.447578,68.857898 273.408801,73.557277 C272.370025,78.2633217 270.902547,84.8091232 269.006368,93.2113461" id="Fill-23" fill="#00bfad" mask="url(#mask-2)"></path>
        </g>
    </g>
</svg>